<svg role="img" viewBox="0 0 24 24" xmlns="http://www.w3.org/2000/svg"><title>API</title><path fill="#666666" d="M10.944 1.25h4.239c3.747 0 5.87 2.167 5.87 5.993v5.24c0 3.779-2.123 5.993-5.87 5.993h-4.24c-3.747 0-5.87-2.214-5.87-5.993v-5.24c0-3.826 2.123-5.993 5.87-5.993Zm.029 2.5c-2.247 0-3.432 1.194-3.432 3.471v5.337c0 2.247 1.185 3.47 3.432 3.47h4.21c2.217 0 3.403-1.223 3.403-3.47V7.221c0-2.277-1.186-3.471-3.404-3.471h-4.21ZM7.576 8.328a.913.913 0 0 1 1.213-.905c.409.103.71.485.71.931v7.292c0 .496-.364.905-.83.905-.465 0-.83-.41-.83-.905v-.41l-.445.492c-.14.155-.323.234-.507.234-.184 0-.368-.079-.508-.234l-.444-.492v.41c0 .496-.365.905-.83.905-.466 0-.83-.41-.83-.905V8.354c0-.446.3-.828.71-.931.475-.12.965.164 1.213.905l1.189 2.882 1.19-2.882Zm5.891-.61h.04c.465 0 .83.41.83.905 0 .496-.365.905-.83.905h-.04v5.118h.04c.465 0 .83.41.83.905 0 .496-.365.905-.83.905h-1.74c-.466 0-.83-.41-.83-.905 0-.496.364-.905.83-.905h.04V9.528h-.04c-.466 0-.83-.41-.83-.905 0-.496.364-.905.83-.905h1.7Zm4.483 0c.465 0 .83.41.83.905v7.292c0 .496-.365.905-.83.905-.466 0-.83-.41-.83-.905V8.623c0-.496.364-.905.83-.905Z"/></svg>