<svg role="img" viewBox="0 0 24 24" xmlns="http://www.w3.org/2000/svg"><title>Next.js</title><path fill="#000000" d="M11.5725 0c-.1763 0-.3098.0013-.3584.0067-.0516.0053-.2159.021-.3636.0328-3.4088.3073-6.6017 2.1463-8.624 4.9728C1.1004 6.584.3802 8.3666.1082 10.255c-.0962.659-.108.8537-.108 1.7474s.012 1.0884.108 1.7476c.652 4.506 3.8591 8.2919 8.2087 9.6945.7789.2511 1.6.4223 2.5337.5255.3636.0394.7131.0551 1.2519.0551.9388 0 1.8463-.0708 2.6912-.2298.2636-.0492.5275-.0492.6273 0 .1.0492.1789.0794.2314.1145.1525.1017.2363.2418.2363.3766 0 .1017-.0547.2418-.1487.3491-.2185.2499-.4998.3407-.9582.3407-.2852 0-.5118-.0492-.8175-.1572-2.0125-.7038-4.0882-.8132-6.0867-.3282-1.0047.2434-1.9867.6313-2.8807 1.1514-.0516.0492-.1098.0727-.1642.0727-.0502 0-.1067-.0235-.1599-.0727-.1627-.1684-.1627-.2934 0-.4618.0971-.0985.2975-.2407.5118-.3634.7131-.4128 1.4477-.7392 2.1728-.9697.5275-.1687 1.0906-.3/>.1294-.1997.3041-.3366.5118-.3915.1067-.0235.2185-.0235.3244 0 .3684.0985.6995.3282.8987.6329.1994.3047.2978.6576.2978 1.0586 0 .1572-.0258.3144-.0775.4716-.0516.1572-.1283.2934-.2265.4128-.1642.1997-.3244.3407-.5118.4128-.1874.072-.3684.108-.5432.108-.2417 0-.4715-.0492-.6867-.1572-.2152-.1017-.3885-.2418-.5118-.4128-.1233-.1684-.1874-.3634-.1874-.5847 0-.2213.0641-.4168.1874-.5852.1233-.1684.2966-.3085.5118-.4128.2152-.1017.445-.1572.6867-.1572.1748 0 .3558.036.5432.108.1874.072.3476.213.5118.4128.0982.1194.1749.2556.2265.4128.0517.1572.0775.3144.0775.4716 0 .4011-.0984.754-.2978 1.0587-.1992.3047-.5303.5344-.8987.6329-.1059.0235-.2177.0235-.3244 0-.2077-.0549-.3824-.1918-.5118-.3915-.2185-.3282-.4063-.6801-.5635-1.0556-.1572-.3756-.2771-.7629-.3601-1.1621-.0831-.3992-.1247-.8064-.1247-1.2217s.0416-.8225.1247-1.2217c.083-.3992.2029-.7865.3601-1.1621.1572-.3755.345-.7274.5635-1.0556z"/></svg>